<svg xmlns="http://www.w3.org/2000/svg" width="1200" height="700" viewBox="0 0 1200 700">
  <style>
    .title { font: 700 28px Arial; fill: #132638; } .text { font: 16px Arial; fill: #385064; }
    .small { font: 14px Arial; fill: #5c6b76; } .box { fill: #fff; stroke: #c8d4dc; stroke-width: 2; rx: 10; }
    .nav { fill: #132638; } .item { fill: #21425e; rx: 6; } .selected { fill: #17a2a4; rx: 6; }
    .white { font: 16px Arial; fill: white; }
  </style>
  <rect width="1200" height="700" fill="#f5f7fa"/>
  <rect class="nav" width="250" height="700"/>
  <text x="28" y="55" class="white" style="font-weight:700;font-size:21px">ÖZPRESS</text>
  <text x="28" y="80" class="white" style="font-weight:700;font-size:21px">OTOMASYON</text>
  <rect x="20" y="125" width="210" height="44" class="selected"/><text x="38" y="153" class="white">Ana Menü</text>
  <rect x="20" y="178" width="210" height="44" class="item"/><text x="38" y="206" class="white">Katalog</text>
  <rect x="20" y="231" width="210" height="44" class="item"/><text x="38" y="259" class="white">Sipariş</text>
  <rect x="20" y="284" width="210" height="44" class="item"/><text x="38" y="312" class="white">Cari</text>
  <rect x="20" y="337" width="210" height="44" class="item"/><text x="38" y="365" class="white">Çıktı</text>
  <text x="300" y="75" class="title">Ana Menü</text><text x="300" y="105" class="small">Hızlı erişim ve güncel durum</text>
  <rect x="300" y="145" width="260" height="130" class="box"/><text x="325" y="180" class="text">Katalog</text><text x="325" y="214" class="small">Ürün / hizmet kartları</text>
  <rect x="580" y="145" width="260" height="130" class="box"/><text x="605" y="180" class="text">Sipariş</text><text x="605" y="214" class="small">Yeni sipariş ve takip</text>
  <rect x="860" y="145" width="260" height="130" class="box"/><text x="885" y="180" class="text">Cari</text><text x="885" y="214" class="small">Müşteri ve hesap hareketleri</text>
  <rect x="300" y="305" width="820" height="320" class="box"/><text x="330" y="350" class="text">İş akışı</text>
  <text x="350" y="430" class="small">Katalog</text><path d="M430 425H535" stroke="#17a2a4" stroke-width="3"/><path d="M535 425l-10-7v14z" fill="#17a2a4"/>
  <text x="555" y="430" class="small">Sipariş</text><path d="M640 425H745" stroke="#17a2a4" stroke-width="3"/><path d="M745 425l-10-7v14z" fill="#17a2a4"/>
  <text x="765" y="430" class="small">Cari</text><path d="M815 425H930" stroke="#17a2a4" stroke-width="3"/><path d="M930 425l-10-7v14z" fill="#17a2a4"/>
  <text x="950" y="430" class="small">Çıktı</text>
  <text x="330" y="505" class="small">Katalogdan ürün seçilir, sipariş oluşturulur; müşteri hesabı güncellenir ve belge/rapor üretilir.</text>
</svg>
